<?xml version="1.0" encoding="utf-8"?>
<!-- Generator: Adobe Illustrator 23.0.3, SVG Export Plug-In . SVG Version: 6.00 Build 0)  -->
<svg version="1.1" id="Layer_1" xmlns="http://www.w3.org/2000/svg" xmlns:xlink="http://www.w3.org/1999/xlink" x="0px" y="0px"
	 viewBox="0 0 658 478" style="enable-background:new 0 0 658 478;" xml:space="preserve">
<style type="text/css">
	.st0{fill:#FFFFFF;}
	.st1{fill:#082B47;}
	.st2{fill:url(#SVGID_1_);}
	.st3{fill:url(#SVGID_2_);}
	.st4{fill:url(#SVGID_3_);}
	.st5{fill:#EA6036;}
	.st6{fill:#CCCCCC;}
	.st7{fill:#CC4E32;}
	.st8{fill:url(#SVGID_4_);}
	.st9{fill:url(#XMLID_17_);}
</style>
<g>
	<path class="st0" d="M544.4,124.6c1.2-18.2,1.1-36.5-0.3-54.5l-0.5-5.9l-5.2-2.8c-2.6-1.4-66.2-34.3-192-36.7
		c-80-1.6-145.6,9.2-186.6,18.5c-44.7,10.2-70.1,20.6-71.2,21.1L82.1,67l0,7.2c0,34.1,3.3,66.7,9.8,97.3l-71.5,7.4l13.8,39.8
		l-6.3,37l1.1,1.4l-0.9,0.1l-13.4,80.9L156,316c42.2,56.5,94.8,90.2,132.1,108.8c41.6,20.8,73,27.4,74.3,27.6l5,1l3.9-3.2
		c2.5-2,60.6-49.8,109.3-131.1l106.3-15.8l7.9-56.2l15.5-2.4l7.4-64.8l16.6-1.9l9-63.7L544.4,124.6z M624.9,168.3l-16.8,1.9
		l-7.5,65.2l-15.3,2.4l-7.9,56.1L474,309.4C425.2,392.6,364.6,442,364.6,442s-123.3-25.5-203.8-137.6l-32.7,5.1l1.4-9.3l-9.5,10.6
		l-92.3,14.5l9.7-58.6l12.1-1.7l-6.7-7.8l-3.6-4.4l6-34.9l-10.3-29.7l70.1-7.3c-7.7-31.7-12.1-67.2-12.1-106.7
		c0,0,100.8-41.8,253.5-38.8c37,0.7,68.6,4.1,94.6,8.6c1.4,0.2,2.7,0.5,4.1,0.7c10.7,1.9,20.5,4,29.2,6.1c4.4,1.1,8.5,2.1,12.4,3.2
		c2,0.5,3.8,1.1,5.7,1.6c0.9,0.3,1.8,0.5,2.7,0.8c1.8,0.5,3.5,1.1,5.1,1.6c1.6,0.5,3.2,1,4.8,1.5c1.5,0.5,3,1,4.4,1.5s2.7,1,4,1.4
		c13.4,4.9,20.2,8.4,20.2,8.4c1.7,22.7,1.3,44.6-0.8,65.7l18.6-1.9l5.2-0.5l15.2-1.6l59.2-6.1L624.9,168.3z"/>
	<path class="st1" d="M552.7,268.5c-1.7,0.2-2.5,0.8-3,2.9l-1.4,5.8c-0.5,2.1,0.2,2.4,1.8,2.2c1.1-0.2,1.9-0.4,2.4-0.9l2.4-9.7
		C554.5,268.3,553.8,268.3,552.7,268.5z"/>
	<path class="st0" d="M457.5,311.8c-1.8,2.9-3.7,5.8-5.6,8.6c-34.4,51.4-72.3,87.3-88.3,101.5c-17.5-5.3-63-21.6-111.1-60
		c-26.2-20.9-49.3-45.2-68.7-72.3l-1.6,11.4l-21.2,3.3C241.3,416.5,364.6,442,364.6,442s60.6-49.3,109.4-132.6L457.5,311.8z"/>
	<linearGradient id="SVGID_1_" gradientUnits="userSpaceOnUse" x1="215.1651" y1="385.4658" x2="587.2925" y2="261.4233">
		<stop  offset="0" style="stop-color:#CCCCCC"/>
		<stop  offset="1" style="stop-color:#999999"/>
	</linearGradient>
	<path class="st2" d="M457.5,311.8c-1.8,2.9-3.7,5.8-5.6,8.6c-34.4,51.4-72.3,87.3-88.3,101.5c-17.5-5.3-63-21.6-111.1-60
		c-26.2-20.9-49.3-45.2-68.7-72.3l-1.6,11.4l-21.2,3.3C241.3,416.5,364.6,442,364.6,442s60.6-49.3,109.4-132.6L457.5,311.8z"/>
	<path class="st0" d="M130.2,178.3c-8.3-29.5-13.1-60.5-14.2-92.4c31.8-11,117-36,231-35c98.1,0.8,155.8,21.1,174.6,28.9
		c1,19.5,0.6,38.9-1.3,58l2.6-0.3l9.8-1c2.1-21.1,2.6-43,0.8-65.7c0,0-6.7-3.6-20.2-8.4c-1.3-0.5-2.6-0.9-4-1.4s-2.9-1-4.4-1.5
		c-1.5-0.5-3.1-1-4.8-1.5c-1.6-0.5-3.4-1-5.1-1.6c-0.9-0.3-1.8-0.5-2.7-0.8c-1.8-0.5-3.7-1.1-5.7-1.6c-3.9-1.1-8-2.1-12.4-3.2
		c-8.8-2.1-18.5-4.2-29.2-6.1c-1.3-0.2-2.7-0.5-4.1-0.7c-26-4.5-57.6-7.9-94.6-8.6c-152.7-3-253.5,38.8-253.5,38.8
		c0.1,39.6,4.5,75,12.1,106.7L130.2,178.3z"/>
	<linearGradient id="SVGID_2_" gradientUnits="userSpaceOnUse" x1="140.8214" y1="162.4349" x2="512.9489" y2="38.3925">
		<stop  offset="0" style="stop-color:#CCCCCC"/>
		<stop  offset="1" style="stop-color:#999999"/>
	</linearGradient>
	<path class="st3" d="M130.2,178.3c-8.3-29.5-13.1-60.5-14.2-92.4c31.8-11,117-36,231-35c98.1,0.8,155.8,21.1,174.6,28.9
		c1,19.5,0.6,38.9-1.3,58l2.6-0.3l9.8-1c2.1-21.1,2.6-43,0.8-65.7c0,0-6.7-3.6-20.2-8.4c-1.3-0.5-2.6-0.9-4-1.4s-2.9-1-4.4-1.5
		c-1.5-0.5-3.1-1-4.8-1.5c-1.6-0.5-3.4-1-5.1-1.6c-0.9-0.3-1.8-0.5-2.7-0.8c-1.8-0.5-3.7-1.1-5.7-1.6c-3.9-1.1-8-2.1-12.4-3.2
		c-8.8-2.1-18.5-4.2-29.2-6.1c-1.3-0.2-2.7-0.5-4.1-0.7c-26-4.5-57.6-7.9-94.6-8.6c-152.7-3-253.5,38.8-253.5,38.8
		c0.1,39.6,4.5,75,12.1,106.7L130.2,178.3z"/>
	<path class="st1" d="M503.3,250.7l-14,2.2c-8.8,19.8-19.4,39.4-31.8,58.9l16.5-2.5C484.6,291.3,494.6,271.7,503.3,250.7z"/>
	<linearGradient id="SVGID_3_" gradientUnits="userSpaceOnUse" x1="210.5118" y1="371.5061" x2="582.6392" y2="247.4636">
		<stop  offset="0" style="stop-color:#CCCCCC"/>
		<stop  offset="1" style="stop-color:#999999"/>
	</linearGradient>
	<path class="st4" d="M503.3,250.7l-14,2.2c-8.8,19.8-19.4,39.4-31.8,58.9l16.5-2.5C484.6,291.3,494.6,271.7,503.3,250.7z"/>
	<path class="st0" d="M228.4,168.1l80.4-8.3l0,0l74.7-7.8l0.3,0.4l0-0.4l64.1-6.7l7.2-0.7l17.2-1.8l21.2-2.2
		c1.8-13.6,2.7-27.3,2.8-41.1c-26.4-8-75-18.5-147.9-17.4c-81.3,1.2-146.3,15.8-186.4,27.8c2.4,22,6.8,43.3,13,63.8L228.4,168.1z
		 M441.5,115.7c1.5-4.9,2.2-7.4,3.7-12.3c1,5.4,1.5,8.1,2.4,13.3c3.8,0.6,5.7,1,9.4,1.7c-3.1,2.4-4.7,3.6-7.9,6.2
		c0.9,5,1.3,7.4,2.2,12.3c-2.8-3.3-4.3-4.9-7.2-8.3c-3.3,2.6-4.9,4-8.3,6.7c1.4-4.8,2.1-7.2,3.6-12c-3.2-3.5-4.8-5.3-8.1-8.9
		C435.4,114.8,437.5,115,441.5,115.7z M404.3,111.9c1.5-5.6,2.2-8.4,3.7-14c1.5,5.9,2.3,8.8,3.8,14.5c4.7,0.3,7,0.5,11.5,1
		c-3.7,3-5.5,4.5-9.3,7.6c1.4,5.4,2.1,8,3.4,13.3c-3.6-3.3-5.5-5-9.3-8.4c-3.8,3.2-5.8,4.9-9.6,8.2c1.4-5.4,2.1-8.1,3.6-13.6
		c-4.1-3.6-6.2-5.4-10.4-9.1C396.8,111.5,399.3,111.6,404.3,111.9z M358.5,111.2c1.4-6.3,2.1-9.5,3.5-16c2.3,6.4,3.4,9.6,5.6,15.8
		c5.7-0.1,8.6-0.1,14.1,0c-4.3,3.6-6.4,5.5-10.8,9.3c2.1,5.8,3.1,8.7,5.1,14.3c-4.7-3.3-7-5-11.9-8.4c-4.5,3.9-6.7,5.9-11.2,10
		c1.3-6.1,2-9.2,3.4-15.4c-5.3-3.6-8-5.4-13.5-9.1C349.3,111.5,352.4,111.4,358.5,111.2z M302.2,114.9c1.2-7.2,1.8-10.9,3.1-18.2
		c3.4,7,5,10.4,8.2,17.2c7.1-0.6,10.6-0.9,17.4-1.3c-5,4.5-7.5,6.7-12.6,11.4c3,6.3,4.5,9.4,7.4,15.4c-6-3.2-9-4.8-15.3-8.1
		c-5.2,4.8-7.8,7.3-13,12.2c1.2-6.9,1.8-10.4,2.9-17.5c-6.8-3.5-10.3-5.3-17.4-8.9C290.8,116.1,294.6,115.7,302.2,114.9z
		 M234.8,103.7c4.8,7.6,7.2,11.3,11.8,18.5c8.7-1.4,13-2,21.5-3.2c-5.8,5.5-8.8,8.3-14.6,14c4.3,6.7,6.4,10,10.4,16.5
		c-7.7-3-11.6-4.5-19.6-7.5c-6,5.9-9,8.9-15,14.9c0.8-7.8,1.2-11.8,2.1-19.8c-8.8-3.3-13.3-4.9-22.5-8.2c9.7-1.9,14.4-2.7,23.8-4.3
		C233.4,116.3,233.9,112.1,234.8,103.7z"/>
	<polygon class="st0" points="353.3,303.5 352.1,274.4 346.2,275.3 340.8,276.2 342,305.5 	"/>
	<path class="st0" d="M438.2,288.4c3.8-5.9,7.3-11.9,10.7-17.8c2.3-4.1,4.6-8.3,6.8-12.4l-11.5,1.8l-40.5,6.4l1.2,28L438.2,288.4z"
		/>
	<polygon class="st0" points="374.7,299.7 373.4,271.1 362.5,272.8 363.7,301.7 	"/>
	<path class="st0" d="M308.5,311.5l-1.1-30.1l-10.3,1.6l0.1-1l-0.9,1.1L240,292c3.4,3.9,6.8,7.7,10.4,11.5
		c5.1,5.4,10.3,10.6,15.8,15.6L308.5,311.5z"/>
	<polygon class="st0" points="331.3,307.4 330.1,277.8 318.4,279.7 319.6,309.5 	"/>
	<polygon class="st0" points="395.3,296 394,267.8 391.5,268.2 383.4,269.5 384.7,297.9 	"/>
	<path class="st5" d="M310.3,359.3c3.9,2.3,7.7,4.5,11.4,6.6l-2.1-56.3l-1.1-29.8l-11,1.7l1.1,30.1L310.3,359.3z"/>
	<path class="st5" d="M333.8,372.2c3.8,1.9,7.5,3.7,11.1,5.2l-2.9-71.9l-1.2-29.4l-10.7,1.7l1.2,29.6L333.8,372.2z"/>
	<path class="st5" d="M356.6,382.4c1.7,0.7,3.4,1.4,5,2c1.7-1.5,3.5-3.2,5.3-4.9l-3.3-77.8l-1.2-28.9l-10.3,1.6l1.2,29.1
		L356.6,382.4z"/>
	<path class="st5" d="M377.7,369.2c3.1-3.1,6.4-6.4,9.7-9.9l-2.7-61.4l-1.2-28.4l-10,1.6l1.2,28.6L377.7,369.2z"/>
	<path class="st5" d="M397.6,348.2c3.1-3.4,6.2-6.9,9.3-10.6l-1.9-43.3l-1.2-28l-9.7,1.5l1.3,28.2L397.6,348.2z"/>
	<path class="st5" d="M231.3,137.1c-0.8,8-1.2,11.9-2.1,19.8c6-6.1,9-9.1,15-14.9c8,3,12,4.5,19.6,7.5c-4.1-6.4-6.2-9.7-10.4-16.5
		c5.9-5.7,8.8-8.5,14.6-14c-8.4,1.2-12.7,1.8-21.5,3.2c-4.6-7.2-7-10.9-11.8-18.5c-0.9,8.4-1.3,12.6-2.2,20.8
		c-9.4,1.6-14.1,2.5-23.8,4.3C218,132.2,222.5,133.8,231.3,137.1z"/>
	<path class="st5" d="M297.4,143.4c5.2-5,7.8-7.4,13-12.2c6.2,3.3,9.3,4.9,15.3,8.1c-2.9-6-4.4-9.1-7.4-15.4
		c5.1-4.6,7.6-6.9,12.6-11.4c-6.8,0.4-10.3,0.7-17.4,1.3c-3.2-6.7-4.9-10.2-8.2-17.2c-1.3,7.3-1.9,11-3.1,18.2
		c-7.6,0.8-11.4,1.2-19.2,2.2c7.1,3.6,10.6,5.4,17.4,8.9C299.1,133,298.5,136.5,297.4,143.4z"/>
	<path class="st5" d="M353,136.3c4.5-4.1,6.8-6.1,11.2-10c4.9,3.4,7.2,5.1,11.9,8.4c-2-5.6-3-8.5-5.1-14.3c4.3-3.8,6.5-5.6,10.8-9.3
		c-5.5-0.1-8.4-0.1-14.1,0c-2.2-6.2-3.3-9.4-5.6-15.8c-1.4,6.4-2.1,9.6-3.5,16c-6.1,0.2-9.2,0.3-15.6,0.6c5.5,3.7,8.2,5.5,13.5,9.1
		C355,127.1,354.3,130.2,353,136.3z"/>
	<path class="st5" d="M398.5,134c3.9-3.3,5.8-5,9.6-8.2c3.8,3.4,5.6,5.1,9.3,8.4c-1.4-5.2-2-7.9-3.4-13.3c3.7-3.1,5.6-4.6,9.3-7.6
		c-4.5-0.5-6.8-0.7-11.5-1c-1.5-5.7-2.2-8.6-3.8-14.5c-1.5,5.6-2.2,8.4-3.7,14c-5-0.3-7.5-0.4-12.7-0.6c4.3,3.7,6.4,5.5,10.4,9.1
		C400.6,125.9,399.9,128.6,398.5,134z"/>
	<path class="st5" d="M435.7,135.2c3.3-2.7,5-4.1,8.3-6.7c3,3.3,4.4,5,7.2,8.3c-0.9-4.8-1.3-7.3-2.2-12.3c3.2-2.5,4.8-3.8,7.9-6.2
		c-3.7-0.7-5.5-1.1-9.4-1.7c-1-5.2-1.4-7.9-2.4-13.3c-1.5,5-2.2,7.4-3.7,12.3c-4.1-0.6-6.1-0.9-10.3-1.4c3.3,3.6,4.9,5.4,8.1,8.9
		C437.9,128,437.2,130.4,435.7,135.2z"/>
	<path class="st1" d="M556.4,134.1l-5.2,0.5l-18.6,1.9l-9.8,1l-2.6,0.3c1.9-19.2,2.4-38.5,1.3-58C502.7,71.9,445,51.7,347,50.9
		c-114-0.9-199.2,24-231,35c1.1,31.9,5.9,62.9,14.2,92.4l-25.2,2.6l-70.1,7.3l10.3,29.7l-6,34.9l3.6,4.4l6.7,7.8l-12.1,1.7
		l-9.7,58.6l92.3-14.5l9.5-10.6l-1.4,9.3l32.7-5.1l21.2-3.3l1.6-11.4c19.4,27.1,42.5,51.4,68.7,72.3c48.1,38.3,93.6,54.7,111.1,60
		c16-14.2,53.9-50.1,88.3-101.5c1.9-2.9,3.8-5.8,5.6-8.6c12.4-19.5,23.1-39.1,31.8-58.9l14-2.2c-8.7,21-18.7,40.6-29.3,58.7
		L577.5,294l7.9-56.1l15.3-2.4l7.5-65.2l16.8-1.9l5.9-42l-59.2,6.1L556.4,134.1z M584.2,154.7l0-0.2c5.7-0.6,11.4-1.2,17.1-1.8
		l-0.5,3.9l-0.3,2.1c-5.7,0.6-11.4,1.2-17.1,1.8l0.4-2.7L584.2,154.7L584.2,154.7z M565.4,153.8l0.7-5.8c18.1-1.9,36.2-3.8,54.2-5.8
		l-0.9,5.8C601.4,150,583.4,151.9,565.4,153.8z M565.5,277l-1.7,6.8l-11.6,1.8l0.3-2.1c-2.4,1.9-5,3.3-9.6,4c-5.9,0.9-8-0.3-6.4-7.1
		l2-8.7c1.6-7,4.5-9,10.5-9.9c2.9-0.4,5.2-0.4,7.5,0.2l0.8-3.1c0.3-1.4-0.3-1.6-1.5-1.4l1.6-6.6l13.5-1.9l-6.8,26.6
		C563.8,276.9,564.2,277.2,565.5,277z M532.5,282l-1.6,6.9l-15.5,2.4l1.5-6.9c1.3-0.2,1.9-0.6,2.2-1.9l1.8-8.3
		c0.3-1.4-0.3-1.6-1.5-1.4l1.4-6.6l13.8-2l-3.7,16.5C530.6,282,531.1,282.2,532.5,282z M523.5,262.4l1.5-7l12-1.7l-1.6,6.9
		L523.5,262.4z M541.8,156.3l-1.3-5.6c6.8-0.7,13.5-1.4,20.3-2.2l-0.8,5.8C553.9,155,547.9,155.6,541.8,156.3z M559.6,157.2l-0.8,6
		c-6,0.6-12,1.3-18,1.9l0.8-6C547.7,158.4,553.7,157.8,559.6,157.2z M540.5,167.6c6-0.6,12-1.3,18-1.9l-0.8,6.2
		c-6,0.6-12,1.3-18,1.9L540.5,167.6z M557.4,174.1l-0.9,6.5c-6,0.6-12.1,1.3-18.1,1.9l0.9-6.5C545.4,175.4,551.4,174.8,557.4,174.1z
		 M534.7,208.8l1-7.1c6.1-0.7,12.2-1.3,18.3-2l-0.9,7.1C547,207.5,540.9,208.2,534.7,208.8z M553,208.1l-1,7.6
		c-6.2,0.7-12.3,1.3-18.5,2l1.1-7.6C540.7,209.4,546.8,208.8,553,208.1z M535.9,200.3l1-7.2c6.1-0.7,12.2-1.3,18.2-2l-0.9,7.2
		C548.1,199,542,199.6,535.9,200.3z M537.2,191.4l0.9-6.8c6.1-0.7,12.1-1.3,18.2-2l-0.9,6.8C549.3,190.1,543.3,190.8,537.2,191.4z
		 M533.4,218.5c6.2-0.7,12.3-1.3,18.5-2l-1.3,9.8l-18.7,2.6L533.4,218.5z M566.5,144.9l0.6-4.8l54.6-6.1l-0.8,5.1
		C602.8,141.1,584.6,143,566.5,144.9z M561.8,140.7l-0.6,4.8c-7.1,0.8-14.3,1.5-21.4,2.3l-1.1-4.5L561.8,140.7z M533.3,144
		l-23.5,45.2l0.9,2.8l0.9,2.6l11.6,35.3l-21.5,3.4l-10.4-33.6l-4.4,1l-3.6,35.5l-20.3,3.2l5.3-40.1l0.2-1.5l4-30.1l-4.6-17l26.3-2.7
		l-4.5,34.9l4.4-0.6l17.2-36.2L533.3,144z M397,176.4l2.2-18.5l63.9-6.6l-0.9,17.7l-20.8,2.4l-4.3,30.8l-0.1,0.6l-5.8,41.6l-21,3.3
		L416,205l0,0l4.2-31.3L397,176.4z M348.4,82c72.9-1.1,121.4,9.4,147.9,17.4c-0.1,13.8-1.1,27.6-2.8,41.1l-21.2,2.2l-17.2,1.8
		l-7.2,0.7l-64.1,6.7l0,0.4l-0.3-0.4l-74.7,7.8l0,0l-80.4,8.3l-53.4,5.5c-6.2-20.5-10.6-41.8-13-63.8C202,97.8,267.1,83.2,348.4,82z
		 M385.3,251.5l-25,3.9l-12.2-31.7l-4.6,0.6l-4.4,34.4l-23.4,3.7l5.4-44.3l0.3-2.8l4.2-34.5l-5-14.8l60.7-6.3l8.9,13.1l-4.5,32.5
		l-2.6,3.2l-0.9,1.1l-8,10L385.3,251.5z M293.7,265.9l-46.2,7.2l-10.2-12.1l4.2-31.9l0.7-5.2l4.5-34.6l-4.8-15.1l19.4-2l0.6-0.1
		l12.7-1.3l32.4-3.4l9.3,12.5l-4.8,36.5l-0.4,3.2l-3.9,29.5L293.7,265.9z M147.4,184l-5.1,31.3l-27.7,3.6l0.7-9.7l-23.1,2.7
		l-3.3,21.9l38.9-4.9l5.6,6.9l5.3,6.5l-0.1,1l-4.5,32.2l-16.2,17.9l-38.7,6.1l-32,5l5.3-32.3l29.5-4.2l-1.4,9l2-0.3l23.5-3.4l2.1-22
		l-22.3,3l-17.9,2.4l-2.8-3.3l-8-9.4l-0.1-0.2l-0.3-0.3l5.6-32.4l-6.1-17.8l23.4-2.4l16.1-1.7L147.4,184z M175,284.5l-27.8,4.4
		l7.4-47.7l1.2-7.8l4.8-30.6l-6-19.5l72.1-7.5l9.9,13.3l-5.1,36l0,0.3l-5.3,5.8l-9.2,10.1l-36.5,5L175,284.5z M250.3,303.5
		c-3.5-3.7-7-7.6-10.4-11.5l56.3-8.8l0.9-1.1l-0.1,1l10.3-1.6l11-1.7l11.7-1.8l10.7-1.7l5.4-0.9l5.9-0.9l10.3-1.6l11-1.7l10-1.6
		l8.1-1.3l2.6-0.4l9.7-1.5l40.5-6.4l11.5-1.8c-2.2,4.1-4.4,8.3-6.8,12.4c-3.4,5.9-7,11.9-10.7,17.8l-33.3,5.9l1.9,43.3
		c-3.1,3.7-6.2,7.2-9.3,10.6l-2.3-52.2l-10.6,1.9l2.7,61.4c-3.3,3.5-6.6,6.8-9.7,9.9l-3-69.5l-11,2l3.3,77.8
		c-1.8,1.7-3.6,3.4-5.3,4.9c-1.6-0.6-3.3-1.3-5-2l-3.3-78.9l-11.4,2l2.9,71.9c-3.5-1.6-7.2-3.3-11.1-5.2l-2.5-64.7l-11.7,2.1
		l2.1,56.3c-3.7-2-7.5-4.2-11.4-6.6l-1.8-47.8l-42.5,7.6C260.6,314,255.4,308.8,250.3,303.5z M500.4,284.8l12.5-1.9L511,292
		l-12.4,1.9L500.4,284.8z M592.2,220.6l-17.2,2.4l1.2-9.1c5.7-0.6,11.4-1.3,17.1-1.9L592.2,220.6z M593.4,211.1
		c-5.7,0.6-11.4,1.3-17.1,1.9l1-7.6c5.7-0.6,11.4-1.3,17.1-1.9L593.4,211.1z M594.6,202.3c-5.7,0.6-11.4,1.2-17.1,1.9l1-7.1
		c5.7-0.6,11.4-1.2,17.1-1.9L594.6,202.3z M595.8,193.8c-5.7,0.6-11.4,1.2-17.1,1.9l1-7.2c5.7-0.6,11.4-1.2,17.1-1.9L595.8,193.8z
		 M597,185c-5.7,0.6-11.4,1.2-17.1,1.9l0.9-6.8c5.7-0.6,11.4-1.2,17.1-1.8L597,185z M598.2,176.1c-5.7,0.6-11.4,1.2-17.1,1.8
		l0.9-6.5c5.7-0.6,11.4-1.2,17.1-1.8L598.2,176.1z M599.4,167.4c-5.7,0.6-11.4,1.2-17.1,1.8l0.8-6.2c5.7-0.6,11.4-1.2,17.1-1.8
		L599.4,167.4z"/>
	<polygon class="st1" points="344.7,205.6 364.6,203 368,179.7 347,182.1 	"/>
	<polygon class="st1" points="272,190.6 267.2,221.2 266.5,225.7 265.8,230.1 265.8,230.1 262.7,250.7 284,247.6 287.3,222.8 
		287.8,219 291.9,188.4 	"/>
	<polygon class="st1" points="206.2,223.2 210.5,197.7 187.5,200.3 183.7,226.1 	"/>
	<path class="st0" d="M231.4,225.1l5.1-36l-9.9-13.3l-72.1,7.5l6,19.5l-4.8,30.6L231.4,225.1z M187.5,200.3l23-2.6l-4.3,25.5
		l-22.5,2.9L187.5,200.3z"/>
	<path class="st0" d="M385.9,205.3l4.5-32.5l-8.9-13.1l-60.7,6.3l5,14.8l-4.2,34.5l61.8-6.7L385.9,205.3z M364.6,203l-19.9,2.5
		l2.3-23.5l20.9-2.4L364.6,203z"/>
	<polygon class="st0" points="437.1,202.7 437.2,202.1 441.4,171.3 462.2,168.9 463.1,151.2 399.2,157.9 397,176.4 420.1,173.7 
		416,205 	"/>
	<polygon class="st5" points="494.2,182.4 489.7,182.9 494.2,148 467.9,150.7 472.5,167.7 468.5,197.8 468.3,199.3 511.6,194.6 
		510.7,192 509.8,189.2 533.3,144 511.3,146.2 	"/>
	<path class="st5" d="M556.3,182.7c-6,0.7-12.1,1.3-18.2,2l-0.9,6.8c6.1-0.7,12.1-1.3,18.2-2L556.3,182.7z"/>
	<path class="st5" d="M580.8,180.1l-0.9,6.8c5.7-0.6,11.4-1.2,17.1-1.9l0.9-6.8C592.2,178.8,586.5,179.4,580.8,180.1z"/>
	<path class="st5" d="M538.4,182.6c6-0.7,12.1-1.3,18.1-1.9l0.9-6.5c-6,0.6-12,1.3-18.1,1.9L538.4,182.6z"/>
	<path class="st5" d="M582,171.5l-0.9,6.5c5.7-0.6,11.4-1.2,17.1-1.8l0.9-6.5C593.4,170.3,587.7,170.9,582,171.5z"/>
	<path class="st5" d="M540.9,165.1c6-0.6,12-1.3,18-1.9l0.8-6c-6,0.6-11.9,1.3-17.9,1.9L540.9,165.1z"/>
	<path class="st5" d="M583.4,160.5c5.7-0.6,11.4-1.2,17.1-1.8l0.3-2.1l0.5-3.9c-5.7,0.6-11.4,1.2-17.1,1.8l0,0.2l0,0l-0.4,3.1
		L583.4,160.5z"/>
	<path class="st5" d="M557.7,171.8l0.8-6.2c-6,0.6-12,1.3-18,1.9l-0.9,6.2C545.7,173.1,551.7,172.5,557.7,171.8z"/>
	<path class="st5" d="M583.1,163l-0.8,6.2c5.7-0.6,11.4-1.2,17.1-1.8l0.8-6.1C594.5,161.8,588.8,162.4,583.1,163z"/>
	<path class="st5" d="M560.8,148.6c-6.8,0.7-13.5,1.4-20.3,2.2l1.3,5.6c6.1-0.6,12.2-1.3,18.2-1.9L560.8,148.6z"/>
	<path class="st5" d="M620.3,142.2c-18,1.9-36.1,3.8-54.2,5.8l-0.7,5.8c18.1-1.9,36.1-3.8,54-5.7L620.3,142.2z"/>
	<path class="st5" d="M539.8,147.7c7.2-0.8,14.3-1.5,21.4-2.3l0.6-4.8l-23.1,2.6L539.8,147.7z"/>
	<path class="st5" d="M621.7,134l-54.6,6.1l-0.6,4.8c18.2-1.9,36.3-3.8,54.4-5.8L621.7,134z"/>
	<polygon class="st0" points="95.5,189.4 79.5,191 56.1,193.5 62.2,211.2 56.7,243.6 56.9,243.9 57.1,244.1 133.3,235.8 
		127.8,228.9 88.9,233.8 92.2,211.9 115.2,209.2 114.6,218.9 142.3,215.3 147.4,184 	"/>
	<polygon class="st0" points="272,190.6 291.9,188.4 287.8,219 311.5,216.4 316.4,179.9 307.1,167.4 274.7,170.8 262,172.1 
		261.3,172.2 242,174.2 246.7,189.3 242.2,223.9 267.2,221.2 	"/>
	<polygon class="st6" points="57.1,244.1 65.1,253.5 67.9,256.8 85.8,254.4 108.1,251.4 106,273.4 82.5,276.8 80.4,277.1 
		81.9,268.1 52.4,272.3 47,304.6 79.1,299.5 117.8,293.5 134,275.5 138.5,243.4 138.6,242.3 133.3,235.8 	"/>
	<polygon class="st6" points="217,241.4 226.1,231.3 231.4,225.4 231.4,225.1 155.9,233.3 154.7,241.1 147.3,288.8 175,284.5 
		180.5,246.4 	"/>
	<polygon class="st6" points="311.1,219.5 311.5,216.4 287.8,219 287.3,222.8 284,247.6 262.7,250.7 265.8,230.1 265.8,230.1 
		266.5,225.7 267.2,221.2 242.2,223.9 241.5,229.1 237.4,261.1 247.5,273.1 293.7,265.9 307.2,249 	"/>
	<polygon class="st6" points="383.3,208.6 321.5,215.3 321.2,218.1 315.7,262.4 339.1,258.8 343.5,224.4 348.1,223.7 360.2,255.5 
		385.3,251.5 374.4,219.7 382.4,209.7 	"/>
	<polygon class="st6" points="416,205 410.3,247.6 431.3,244.3 437.1,202.7 416,205 	"/>
	<polygon class="st7" points="468.3,199.3 463,239.3 483.3,236.2 487,200.6 491.3,199.7 501.7,233.3 523.2,229.9 511.6,194.6 	"/>
	<path class="st7" d="M551.8,216.5c-6.2,0.7-12.3,1.3-18.5,2l-1.5,10.3l18.7-2.6L551.8,216.5z"/>
	<path class="st7" d="M533.5,217.7c6.2-0.7,12.3-1.3,18.5-2l1-7.6c-6.1,0.7-12.3,1.3-18.4,2L533.5,217.7z"/>
	<path class="st7" d="M554,199.7c-6.1,0.7-12.2,1.3-18.3,2l-1,7.1c6.1-0.7,12.3-1.3,18.4-2L554,199.7z"/>
	<path class="st7" d="M555.2,191.1c-6.1,0.6-12.1,1.3-18.2,2l-1,7.2c6.1-0.7,12.2-1.3,18.3-2L555.2,191.1z"/>
	<path class="st7" d="M576.2,213.8l-1.2,9.1l17.2-2.4l1.2-8.6C587.6,212.6,581.9,213.2,576.2,213.8z"/>
	<path class="st7" d="M577.4,205.4l-1,7.6c5.7-0.6,11.4-1.3,17.1-1.9l1-7.6C588.8,204.2,583.1,204.8,577.4,205.4z"/>
	<path class="st7" d="M578.5,197.1l-1,7.1c5.7-0.6,11.4-1.2,17.1-1.9l1-7.1C589.9,195.8,584.2,196.5,578.5,197.1z"/>
	<path class="st7" d="M579.7,188.4l-1,7.2c5.7-0.6,11.4-1.2,17.1-1.9l1-7.2C591.1,187.2,585.4,187.8,579.7,188.4z"/>
	<polygon class="st0" points="512.9,282.9 500.4,284.8 498.6,293.9 511,292 	"/>
	<path class="st0" d="M534.6,264.2l-13.8,2l-1.4,6.6c1.3-0.2,1.8,0,1.5,1.4l-1.8,8.3c-0.3,1.3-1,1.7-2.2,1.9l-1.5,6.9l15.5-2.4
		l1.6-6.9c-1.4,0.2-1.8,0-1.6-1.3L534.6,264.2z"/>
	<polygon class="st0" points="537,253.7 525,255.4 523.5,262.4 535.4,260.6 	"/>
	<path class="st0" d="M570.9,249l-13.5,1.9l-1.6,6.6c1.3-0.2,1.8,0,1.5,1.4l-0.8,3.1c-2.3-0.6-4.6-0.6-7.5-0.2
		c-6,0.9-8.9,2.9-10.5,9.9l-2,8.7c-1.6,6.9,0.5,8.1,6.4,7.1c4.6-0.7,7.2-2.1,9.6-4l-0.3,2.1l11.6-1.8l1.7-6.8
		c-1.3,0.2-1.7,0-1.4-1.3L570.9,249z M552.5,278.4c-0.5,0.5-1.3,0.8-2.4,0.9c-1.6,0.3-2.3-0.1-1.8-2.2l1.4-5.8
		c0.5-2.1,1.4-2.6,3-2.9c1.1-0.2,1.8-0.2,2.1,0.2L552.5,278.4z"/>
</g>
</svg>
